<svg width="100" height="100" viewBox="0 0 100 100" fill="none" xmlns="http://www.w3.org/2000/svg">
<rect x="0.5" y="0.5" width="99" height="99" rx="49.5" stroke="black"/>
<path d="M19.04 60.5L12.32 43.86H16.8L21.28 55.94L25.76 43.86H30.24L23.52 60.5H19.04ZM31.9038 68.82V52.18C31.9038 47.38 36.0638 43.46 40.8638 43.46C46.0638 43.46 49.8238 46.98 49.8238 52.18C49.8238 56.98 45.8238 60.9 41.1037 60.9C39.4238 60.9 37.8238 60.5 36.3838 59.46V68.82H31.9038ZM40.8638 56.74C43.5038 56.74 45.3438 54.74 45.3438 52.18C45.3438 49.54 43.5038 47.62 40.8638 47.62C38.3038 47.62 36.3838 49.54 36.3838 52.18C36.3838 54.74 38.3038 56.74 40.8638 56.74ZM61.5091 60.9C56.3091 60.9 52.5491 57.38 52.5491 52.18C52.5491 47.38 56.7091 43.46 61.5091 43.46C63.9891 43.46 65.9891 44.18 67.7491 45.94L64.7891 48.9C63.9091 48.1 62.7891 47.62 61.5091 47.62C58.9491 47.62 57.0291 49.54 57.0291 52.18C57.0291 54.74 58.9491 56.74 61.5091 56.74C62.7091 56.74 63.9091 56.18 64.7091 55.38L67.6691 58.26C66.0691 59.94 63.8291 60.9 61.5091 60.9ZM79.2825 60.9C74.0825 60.9 70.3225 57.38 70.3225 52.18C70.3225 47.38 74.4825 43.46 79.2825 43.46C81.7625 43.46 83.7625 44.18 85.5225 45.94L82.5625 48.9C81.6825 48.1 80.5625 47.62 79.2825 47.62C76.7225 47.62 74.8025 49.54 74.8025 52.18C74.8025 54.74 76.7225 56.74 79.2825 56.74C80.4825 56.74 81.6825 56.18 82.4825 55.38L85.4425 58.26C83.8425 59.94 81.6025 60.9 79.2825 60.9Z" fill="black"/>
</svg>
